<svg xmlns="http://www.w3.org/2000/svg" width="22" height="22" fill="none"><path stroke="#000" stroke-linecap="round" stroke-linejoin="round" stroke-width="1.5" d="M8.373 14.904 7.56 17.75l-.813-2.846a4.5 4.5 0 0 0-3.09-3.09L.81 11l2.846-.813a4.5 4.5 0 0 0 3.09-3.09L7.56 4.25l.813 2.846a4.5 4.5 0 0 0 3.09 3.09L14.31 11l-2.846.813a4.5 4.5 0 0 0-3.09 3.09v.001Zm8.446-7.189L16.56 8.75l-.259-1.035a3.375 3.375 0 0 0-2.455-2.456L12.81 5l1.036-.259a3.375 3.375 0 0 0 2.455-2.456l.26-1.035.258 1.035a3.375 3.375 0 0 0 2.456 2.456L20.31 5l-1.035.259a3.375 3.375 0 0 0-2.456 2.456Zm-1.365 11.852-.394 1.183-.394-1.183a2.25 2.25 0 0 0-1.423-1.423l-1.183-.394 1.183-.394a2.251 2.251 0 0 0 1.423-1.423l.394-1.183.394 1.183a2.251 2.251 0 0 0 1.423 1.423l1.183.394-1.183.394a2.251 2.251 0 0 0-1.423 1.423Z"/></svg>