<svg xmlns="http://www.w3.org/2000/svg" width="21" height="22" fill="none"><path stroke="#000" stroke-linecap="round" stroke-linejoin="round" stroke-width="1.5" d="M5.43 5.065a1.575 1.575 0 1 0-2.662 1.684l1.604 2.535m1.058-4.22-.802-1.267A1.575 1.575 0 0 1 7.29 2.113l.802 1.268M5.43 5.065l3.232 4.967m-4.29-.748a1.575 1.575 0 0 0-2.661 1.685l4.37 6.908a6.75 6.75 0 0 0 9.314 2.095l1.705-1.08a5.25 5.25 0 0 0 2.315-3.284l.537-2.39a5.25 5.25 0 0 0-.685-3.959l-1.08-1.712a.668.668 0 0 1-.084-.504 1.575 1.575 0 1 0-3.074-.691 3.818 3.818 0 0 0 .49 2.87m-11.147.062 2.367 3.74M8.091 3.38l3.57 5.64m-3.57-5.64a1.575 1.575 0 1 1 2.662-1.685l5.574 8.81m0 0a4.49 4.49 0 0 0-1.982 2.814m1.982-2.814.002-.001"/></svg>