<svg xmlns="http://www.w3.org/2000/svg" width="56" height="70" fill="none"><path stroke="#000" stroke-linecap="round" stroke-linejoin="round" stroke-miterlimit="10" stroke-width="1.203" d="M38.436 40.14a14.55 14.55 0 0 0 3.212-9.137c0-8.092-6.56-14.646-14.652-14.646-8.092 0-14.652 6.563-14.652 14.655 0 3.514 1.239 6.716 3.301 9.24C20.004 47.19 19.872 52.5 19.872 52.5h14.231S34 47.132 38.436 40.14ZM18.4 56.71v-1.804h15.937v1.804m0 9.622v2.105H18.4v-2.105"/><path fill="#000" stroke="#000" stroke-linecap="round" stroke-linejoin="round" stroke-miterlimit="10" stroke-width="1.203" d="M36.742 59.705a.915.915 0 0 1-.914.914H17.51a.911.911 0 0 1-.914-.914v-.577a.913.913 0 0 1 .914-.914h18.318a.915.915 0 0 1 .914.914v.577h0Zm0 4.21a.915.915 0 0 1-.914.914H17.51a.915.915 0 0 1-.914-.914v-.578a.913.913 0 0 1 .914-.914h18.318a.913.913 0 0 1 .914.914v.578h0Z"/><path stroke="#000" stroke-linecap="round" stroke-linejoin="round" stroke-miterlimit="10" stroke-width="1.203" d="M16.282 26.372c-.29.768-.531 1.619-.712 2.56m11.426-9.75s-5.901-.381-9.352 4.575M26.82 1.082v9.322M18.478 6.721l2.104 5.08m26.978 6.967-5.08 2.104m-6.966-14.15-2.105 5.08M6.432 18.768l5.08 2.104M54.483 27.543H43.658M.66 27.543h9.32M46.438 7.778l-7.591 7.592M7.553 7.778l7.592 7.592M.66 27.543h9.32M22.91 52.5V41.675h1.203c.698 0 .91 4.061 1.609 4.061.698 0 .698-3.911 1.397-3.911.699 0 .699 3.911 1.398 3.911.698 0 .911-4.06 1.61-4.06h1.203V52.5"/></svg>