<svg xmlns="http://www.w3.org/2000/svg" width="20" height="20" fill="none"><path stroke="#000" stroke-linecap="round" stroke-linejoin="round" stroke-width="1.5" d="M10.761 1.03v.568c0 .334.148.65.405.864l1.068.89c.442.369.535 1.01.216 1.49l-.51.766a2.25 2.25 0 0 1-1.16.886l-.144.048a1.107 1.107 0 0 0-.57 1.664 1.108 1.108 0 0 1-.427 1.605l-2.628 1.314.423 1.059a.956.956 0 0 1-1.652.928l-.679-.906a1.125 1.125 0 0 0-1.906.172l-.686 1.372-.612.153M10.761 1.03A9 9 0 0 0 1.9 13.903M10.761 1.03a9 9 0 0 1 6.69 14.037l-.177-.529A2.25 2.25 0 0 0 15.14 13h-.628l-.324-.324a1.454 1.454 0 0 0-2.328.377l-.036.073a1.587 1.587 0 0 1-.982.816l-.99.282c-.55.157-.894.702-.8 1.267l.073.438c.08.474.49.821.97.821.846 0 1.598.542 1.865 1.345l.215.643M1.9 13.903a9 9 0 0 0 10.275 4.835m0 0a9.013 9.013 0 0 0 5.276-3.67M13.761 7c0 .896-.393 1.7-1.016 2.25"/></svg>