<svg xmlns="http://www.w3.org/2000/svg" width="20" height="20" fill="none"><path stroke="#000" stroke-linecap="round" stroke-linejoin="round" stroke-width="1.5" d="M9.491 1.168a.562.562 0 0 1 1.04 0l2.125 5.111a.563.563 0 0 0 .475.345l5.518.442c.5.04.701.663.321.988l-4.204 3.602a.564.564 0 0 0-.182.557l1.285 5.385a.562.562 0 0 1-.84.61l-4.725-2.885a.562.562 0 0 0-.586 0L4.993 18.21a.562.562 0 0 1-.84-.61l1.285-5.386a.562.562 0 0 0-.182-.557L1.052 8.054a.562.562 0 0 1 .321-.988l5.518-.442a.563.563 0 0 0 .475-.345l2.125-5.11Z"/></svg>