<!-- Generated by IcoMoon.io -->
<svg version="1.1" xmlns="http://www.w3.org/2000/svg" width="32" height="32" viewBox="0 0 32 32">
<path fill="#7ce5e0" d="M22.2 9.839c0.006 0 0.014 0 0.023 0 0.216 0 0.416 0.067 0.581 0.183l-0.003-0.002c0.12 0.104 0.2 0.251 0.22 0.416v0.003c0.021 0.126 0.032 0.271 0.032 0.418 0 0.067-0.002 0.133-0.007 0.199v-0.009c-0.232 2.447-1.241 8.381-1.753 11.12-0.217 1.16-0.643 1.548-1.057 1.585-0.898 0.084-1.579-0.593-2.449-1.163-1.361-0.893-2.131-1.449-3.452-2.32-1.528-1.005-0.537-1.56 0.333-2.462 0.228-0.238 4.185-3.837 4.263-4.164 0.004-0.020 0.006-0.041 0.006-0.064 0-0.081-0.030-0.154-0.078-0.21-0.054-0.035-0.121-0.055-0.191-0.055-0.047 0-0.091 0.009-0.132 0.025l0.002-0.001c-0.136 0.031-2.311 1.468-6.524 4.311-0.46 0.363-1.040 0.592-1.672 0.619h-0.006c-0.896-0.109-1.708-0.308-2.48-0.592l0.076 0.025c-0.969-0.316-1.738-0.482-1.672-1.017 0.035-0.278 0.419-0.563 1.151-0.854 4.509-1.965 7.516-3.259 9.020-3.885 1.66-0.881 3.584-1.606 5.608-2.076l0.162-0.032 0.001 0.001zM15.804 0.527c-8.575 0.021-15.519 6.977-15.519 15.556 0 8.591 6.964 15.556 15.556 15.556s15.556-6.964 15.556-15.556c0-8.578-6.944-15.535-15.517-15.556h-0.002c-0.024 0-0.048 0-0.072 0z"></path>
</svg>
