<!-- Generated by IcoMoon.io -->
<svg version="1.1" xmlns="http://www.w3.org/2000/svg" width="32" height="32" viewBox="0 0 32 32">
<path fill="#7ce5e0" d="M24.294 6.039c-0.371 0-0.734 0.11-1.043 0.317s-0.549 0.5-0.691 0.843c-0.142 0.343-0.178 0.721-0.105 1.085s0.253 0.698 0.516 0.96 0.598 0.44 0.963 0.511c0.364 0.071 0.742 0.033 1.084-0.11s0.635-0.385 0.84-0.695c0.205-0.31 0.314-0.673 0.312-1.044-0.002-0.496-0.201-0.971-0.552-1.32s-0.827-0.546-1.323-0.546zM15.973 8.439c-1.556-0.002-3.078 0.458-4.373 1.321s-2.305 2.091-2.901 3.529c-0.597 1.437-0.754 3.019-0.451 4.546s1.051 2.929 2.151 4.030c1.1 1.101 2.502 1.851 4.028 2.155s3.108 0.149 4.546-0.446c1.438-0.595 2.667-1.603 3.532-2.897s1.326-2.815 1.326-4.371c0.005-1.036-0.195-2.062-0.588-3.021s-0.97-1.83-1.7-2.565c-0.73-0.735-1.598-1.319-2.553-1.717s-1.981-0.606-3.017-0.608v0.044zM15.973 21.336c-0.998 0.002-1.973-0.293-2.803-0.846s-1.478-1.34-1.86-2.261c-0.383-0.921-0.483-1.935-0.289-2.914s0.674-1.877 1.38-2.583c0.705-0.705 1.604-1.186 2.583-1.38s1.993-0.094 2.914 0.289c0.921 0.383 1.708 1.030 2.261 1.86s0.847 1.806 0.846 2.803c-0.014 1.326-0.55 2.593-1.492 3.526s-2.213 1.458-3.539 1.46v0.044zM31.84 9.781c0-1.26-0.248-2.507-0.73-3.67s-1.188-2.221-2.079-3.112c-0.891-0.891-1.948-1.597-3.112-2.079s-2.411-0.73-3.67-0.73h-12.667c-2.544 0-4.983 1.010-6.782 2.809s-2.809 4.238-2.809 6.782v12.604c0 2.544 1.010 4.983 2.809 6.782s4.238 2.809 6.782 2.809h12.667c1.26 0 2.507-0.248 3.67-0.73s2.221-1.188 3.112-2.079c0.891-0.891 1.597-1.948 2.079-3.112s0.73-2.411 0.73-3.67v-12.604zM28.854 22.385c0 1.747-0.694 3.422-1.929 4.657s-2.911 1.929-4.657 1.929h-12.684c-0.865 0-1.721-0.17-2.521-0.501s-1.525-0.816-2.137-1.428c-0.612-0.612-1.097-1.338-1.428-2.137s-0.501-1.656-0.501-2.521v-12.667c0-0.865 0.17-1.721 0.501-2.521s0.816-1.525 1.428-2.137c0.612-0.612 1.338-1.097 2.137-1.428s1.656-0.501 2.521-0.501h12.667c0.866-0.002 1.725 0.166 2.526 0.496s1.529 0.815 2.143 1.427 1.1 1.339 1.432 2.139c0.332 0.8 0.503 1.658 0.503 2.525v12.667z"></path>
</svg>
